<svg width="72" height="72" viewBox="0 0 72 72" fill="none" xmlns="http://www.w3.org/2000/svg">
<path d="M36 33C36 43.551 32.973 53.397 27.741 61.713M17.421 55.593L17.583 55.323C21.7906 48.6388 24.0157 40.8982 24 33C24 29.8174 25.2643 26.7652 27.5147 24.5147C29.7652 22.2643 32.8174 21 36 21C39.1826 21 42.2348 22.2643 44.4853 24.5147C46.7357 26.7652 48 29.8174 48 33C48 36.051 47.79 39.057 47.391 42M41.037 62.532C42.8887 58.8375 44.3873 54.9763 45.513 51M57.03 54.396C58.965 47.598 60 40.419 60 33C60.0009 28.7867 58.8927 24.6473 56.7866 20.9981C54.6806 17.3489 51.651 14.3184 48.0023 12.2114C44.3537 10.1043 40.2147 8.99487 36.0013 8.99463C31.788 8.99439 27.6489 10.1034 24 12.21M9 46.092C10.92 42.135 12 37.692 12 33C12 28.629 13.17 24.531 15.21 21" stroke="white" stroke-width="7" stroke-linecap="round" stroke-linejoin="round"/>
</svg>
