<svg xmlns="http://www.w3.org/2000/svg" width="111" height="67" viewBox="0 0 111 67"><g><g><g><g><g><path fill="#fff" d="M63 53.42h-5v-6h-5v6h-5c-3.3 0-6 2.7-6 6v7h27v-7c0-3.3-2.7-6-6-6z"/></g><g><path fill="#59789e" d="M18 7.92a7.5 7.5 0 1 1 15 0 7.5 7.5 0 0 1-15 0z"/></g><g><path fill="#ef4041" d="M33 7.92a7.5 7.5 0 1 1 15 0 7.5 7.5 0 0 1-15 0z"/></g><g><path fill="#59789e" d="M48 7.92a7.5 7.5 0 1 1 15 0 7.5 7.5 0 0 1-15 0z"/></g><g><path fill="#ef4041" d="M63 7.92a7.5 7.5 0 1 1 15 0 7.5 7.5 0 0 1-15 0z"/></g><g><path fill="#59789e" d="M78 7.92a7.5 7.5 0 1 1 15 0 7.5 7.5 0 0 1-15 0z"/></g><g><path fill="#345078" d="M18 22.92a7.5 7.5 0 1 1 15 0 7.5 7.5 0 0 1-15 0z"/></g><g><path fill="#59789e" d="M33 22.92a7.5 7.5 0 1 1 15 0 7.5 7.5 0 0 1-15 0z"/></g><g><path fill="#ef4041" d="M48 22.92a7.5 7.5 0 1 1 15 0 7.5 7.5 0 0 1-15 0z"/></g><g><path fill="#59789e" d="M63 22.92a7.5 7.5 0 1 1 15 0 7.5 7.5 0 0 1-15 0z"/></g><g><path fill="#345078" d="M78 22.92a7.5 7.5 0 1 1 15 0 7.5 7.5 0 0 1-15 0z"/></g></g></g></g></g></svg>