<svg xmlns="http://www.w3.org/2000/svg" width="61" height="67" viewBox="0 0 61 67"><g><g><g><g><path fill="#fff" d="M6.115 22.286C6.115 10.12 15.975.26 28.14.26s22.026 9.861 22.026 22.026c0 12.164-9.861 22.025-22.026 22.025-12.164 0-22.025-9.861-22.025-22.025z"/></g><g><path fill="#ef4041" d="M28.14.26C15.975.26 6.114 10.121 6.114 22.285c0 12.165 9.861 22.026 22.026 22.026 12.164 0 22.025-9.861 22.025-22.026H28.14z"/></g><g><path fill="#ef4041" d="M42.051 62.859v-15.07h6.955v15.07z"/></g><g><path fill="#ef4041" d="M30.459 62.859v-8.115h6.955v8.115z"/></g><g><path fill="#fff" d="M53.643 62.859V40.833H60.6V62.86z"/></g><g><path fill="none" stroke="#345078" stroke-miterlimit="20" stroke-width="7" d="M11.331 43.63c0-6.083 4.93-11.013 11.013-11.013 6.082 0 11.013 4.93 11.013 11.012 0 6.083-4.93 11.013-11.013 11.013-6.082 0-11.013-4.93-11.013-11.013z"/></g><g><path fill="none" stroke="#345078" stroke-miterlimit="20" stroke-width="7" d="M14.917 51.744L2.401 64.26"/></g></g></g></g></svg>