<svg width="94" height="80" viewBox="0 0 94 80" fill="none" xmlns="http://www.w3.org/2000/svg">
<path d="M10.5 35.375V61.625C10.5 67.4263 19.9027 72.125 31.5 72.125C43.0973 72.125 52.5 67.4263 52.5 61.625V35.375M10.5 35.375C10.5 41.1763 19.9027 45.875 31.5 45.875C43.0973 45.875 52.5 41.1763 52.5 35.375M10.5 35.375C10.5 29.5737 19.9027 24.875 31.5 24.875C43.0973 24.875 52.5 29.5737 52.5 35.375M52.5 48.5C52.5 54.3013 43.0973 59 31.5 59C19.9027 59 10.5 54.3013 10.5 48.5" stroke="white" stroke-width="7" stroke-linecap="round" stroke-linejoin="round"/>
<path d="M41.9504 46.7996C39.9812 44.8304 38.875 42.1597 38.875 39.3749C38.8749 36.9913 39.6856 34.6784 41.174 32.8165C42.6624 30.9547 44.7398 29.6544 47.065 29.1296C46.6658 27.4299 46.6095 25.6677 46.8995 23.946C47.1895 22.2243 47.82 20.5778 48.7541 19.1027C49.6881 17.6276 50.9069 16.3536 52.3393 15.3553C53.7716 14.3569 55.3887 13.6542 57.0958 13.2884C58.803 12.9225 60.566 12.9008 62.2817 13.2245C63.9973 13.5481 65.6312 14.2107 67.0877 15.1735C68.5442 16.1363 69.7941 17.3798 70.7642 18.8314C71.7343 20.283 72.4051 21.9136 72.7375 23.6276C74.4718 23.5929 76.1958 23.9023 77.8097 24.538C79.4237 25.1737 80.8957 26.123 82.1405 27.331C83.3853 28.539 84.3784 29.9819 85.0622 31.576C85.746 33.1702 86.107 34.8841 86.1243 36.6187C86.1417 38.3532 85.815 40.074 85.1632 41.6816C84.5115 43.2891 83.5475 44.7515 82.3271 45.9842C81.1066 47.2169 79.654 48.1954 78.053 48.8633C76.4521 49.5311 74.7346 49.8749 73 49.8749H49.375C46.5902 49.8749 43.9195 48.7687 41.9504 46.7996Z" stroke="#345078" stroke-width="7" stroke-linecap="round" stroke-linejoin="round"/>
<circle cx="50" cy="40" r="8" fill="#345078"/>
<circle cx="56" cy="31" r="8" fill="#345078"/>
<circle cx="57" cy="24" r="8" fill="#345078"/>
<circle cx="62" cy="23" r="8" fill="#345078"/>
<path d="M86.5 40.5C86.5 49.3366 58.4183 47.5 54 47.5C49.5818 47.5 54.0001 39.8366 54.0001 31C54.0001 22.1634 57.5818 15 62.0001 15C66.4184 15 86.5 31.6634 86.5 40.5Z" fill="#345078"/>
<path d="M56.781 37.2495C56.281 36.7689 56 36.1171 56 35.4375C56 34.8558 56.2059 34.2913 56.5839 33.8369C56.9619 33.3826 57.4895 33.0652 58.08 32.9371C57.9786 32.5223 57.9643 32.0923 58.038 31.6721C58.1116 31.2519 58.2718 30.8501 58.509 30.4901C58.7462 30.1301 59.0557 29.8192 59.4195 29.5756C59.7833 29.3319 60.1939 29.1604 60.6275 29.0711C61.0611 28.9819 61.5088 28.9766 61.9445 29.0556C62.3803 29.1345 62.7952 29.2963 63.1651 29.5312C63.535 29.7662 63.8525 30.0697 64.0988 30.4239C64.3452 30.7782 64.5156 31.1761 64.6 31.5944C65.0405 31.5859 65.4783 31.6615 65.8882 31.8166C66.2981 31.9717 66.6719 32.2034 66.9881 32.4982C67.3042 32.793 67.5564 33.1451 67.7301 33.5342C67.9037 33.9233 67.9954 34.3415 67.9998 34.7648C68.0042 35.1882 67.9213 35.6081 67.7557 36.0004C67.5902 36.3927 67.3454 36.7496 67.0354 37.0505C66.7255 37.3513 66.3566 37.5901 65.95 37.7531C65.5434 37.9161 65.1072 38 64.6667 38H58.6667C57.9594 38 57.2811 37.73 56.781 37.2495Z" stroke="#1C283A" stroke-width="8" stroke-linecap="round" stroke-linejoin="round"/>
<path d="M52.497 40.5823C51.5385 39.6746 51 38.4434 51 37.1597C50.9999 36.0609 51.3946 34.9948 52.1191 34.1365C52.8436 33.2782 53.8548 32.6788 54.9867 32.4368C54.7923 31.6533 54.7649 30.841 54.9061 30.0473C55.0473 29.2537 55.3542 28.4946 55.8089 27.8147C56.2635 27.1347 56.8568 26.5474 57.554 26.0872C58.2513 25.627 59.0384 25.3031 59.8694 25.1344C60.7004 24.9657 61.5586 24.9557 62.3937 25.1049C63.2289 25.2541 64.0242 25.5596 64.7332 26.0034C65.4422 26.4472 66.0506 27.0205 66.5228 27.6896C66.995 28.3588 67.3216 29.1104 67.4833 29.9005C68.3275 29.8845 69.1667 30.0272 69.9524 30.3202C70.738 30.6133 71.4545 31.0509 72.0605 31.6077C72.6664 32.1646 73.1498 32.8297 73.4827 33.5646C73.8155 34.2995 73.9912 35.0896 73.9997 35.8892C74.0081 36.6887 73.8491 37.482 73.5318 38.223C73.2146 38.9641 72.7453 39.6382 72.1513 40.2064C71.5572 40.7747 70.8501 41.2258 70.0708 41.5336C69.2915 41.8415 68.4555 42 67.6111 42H56.1111C54.7556 42 53.4555 41.49 52.497 40.5823Z" stroke="#1C283A" stroke-width="8" stroke-linecap="round" stroke-linejoin="round"/>
<path d="M49.0828 42.1654C47.7492 40.9906 47 39.3974 47 37.7361C46.9999 36.3141 47.549 34.9344 48.557 33.8237C49.565 32.7129 50.9719 31.9373 52.5467 31.6241C52.2763 30.6102 52.2382 29.5589 52.4346 28.5318C52.631 27.5047 53.058 26.5225 53.6906 25.6425C54.3232 24.7625 55.1486 24.0025 56.1187 23.4069C57.0887 22.8114 58.1839 22.3922 59.34 22.1739C60.4962 21.9557 61.6902 21.9427 62.8521 22.1358C64.0141 22.3289 65.1206 22.7242 66.107 23.2985C67.0934 23.8729 67.9399 24.6147 68.5969 25.4807C69.2539 26.3467 69.7082 27.3194 69.9333 28.3419C71.1079 28.3212 72.2754 28.5058 73.3685 28.885C74.4616 29.2642 75.4585 29.8305 76.3015 30.5512C77.1446 31.2719 77.8171 32.1326 78.2802 33.0836C78.7433 34.0346 78.9878 35.0571 78.9996 36.0919C79.0113 37.1266 78.7901 38.1532 78.3487 39.1122C77.9072 40.0712 77.2544 40.9436 76.4279 41.6789C75.6013 42.4143 74.6175 42.9981 73.5333 43.3965C72.449 43.7949 71.2859 44 70.1111 44H54.1111C52.2251 44 50.4164 43.3401 49.0828 42.1654Z" stroke="#1C283A" stroke-width="8" stroke-linecap="round" stroke-linejoin="round"/>
</svg>
