<svg width="72" height="70" viewBox="0 0 72 70" fill="none" xmlns="http://www.w3.org/2000/svg">
<path d="M45.9165 10.5054C44.8799 6.23224 38.8011 6.23224 37.7644 10.5054C37.0928 13.2674 33.9292 14.5766 31.5055 13.0971C27.7482 10.8096 23.4507 15.1096 25.7382 18.8644C26.082 19.4284 26.2879 20.0656 26.3389 20.7241C26.39 21.3826 26.2848 22.0439 26.032 22.6542C25.7792 23.2644 25.3859 23.8063 24.884 24.2358C24.3822 24.6653 23.786 24.9702 23.1441 25.1257C18.8709 26.1624 18.8709 32.2412 23.1441 33.2779C23.7855 33.4338 24.381 33.7389 24.8823 34.1684C25.3835 34.5978 25.7764 35.1395 26.0289 35.7494C26.2814 36.3592 26.3865 37.02 26.3356 37.6781C26.2846 38.3362 26.0791 38.973 25.7357 39.5368C23.4483 43.294 27.7482 47.5916 31.5031 45.3041C32.067 44.9602 32.7042 44.7544 33.3628 44.7033C34.0213 44.6523 34.6826 44.7574 35.2928 45.0103C35.9031 45.2631 36.445 45.6564 36.8745 46.1582C37.3039 46.6601 37.6089 47.2562 37.7644 47.8982C38.8011 52.1714 44.8799 52.1714 45.9165 47.8982C46.0725 47.2568 46.3776 46.6613 46.8071 46.16C47.2365 45.6587 47.7782 45.2659 48.388 45.0134C48.9979 44.7608 49.6587 44.6558 50.3168 44.7067C50.9749 44.7577 51.6117 44.9632 52.1754 45.3065C55.9327 47.594 60.2302 43.294 57.9428 39.5392C57.5989 38.9752 57.3931 38.338 57.342 37.6795C57.291 37.021 57.3961 36.3597 57.6489 35.7494C57.9018 35.1392 58.2951 34.5973 58.7969 34.1678C59.2987 33.7383 59.8949 33.4334 60.5368 33.2779C64.81 32.2412 64.81 26.1624 60.5368 25.1257C59.8955 24.9698 59.2999 24.6647 58.7987 24.2352C58.2974 23.8058 57.9046 23.2641 57.652 22.6542C57.3995 22.0444 57.2944 21.3836 57.3454 20.7255C57.3963 20.0674 57.6018 19.4306 57.9452 18.8668C60.2327 15.1096 55.9327 10.812 52.1779 13.0995C51.6139 13.4434 50.9767 13.6492 50.3182 13.7003C49.6596 13.7513 48.9983 13.6462 48.3881 13.3933C47.7779 13.1405 47.236 12.7472 46.8065 12.2454C46.377 11.7435 46.0721 11.1474 45.9165 10.5054Z" stroke="#345078" stroke-width="5" stroke-linecap="round" stroke-linejoin="round"/>
<path d="M47.0026 34.364C48.3717 32.9949 49.1409 31.138 49.1409 29.2018C49.1409 27.2656 48.3717 25.4087 47.0026 24.0396C45.6335 22.6705 43.7767 21.9014 41.8405 21.9014C39.9043 21.9014 38.0474 22.6705 36.6783 24.0396C35.3092 25.4087 34.54 27.2656 34.54 29.2018C34.54 31.138 35.3092 32.9949 36.6783 34.364C38.0474 35.7331 39.9043 36.5022 41.8405 36.5022C43.7767 36.5022 45.6335 35.7331 47.0026 34.364Z" stroke="#345078" stroke-width="5" stroke-linecap="round" stroke-linejoin="round"/>
<path d="M0.958008 40.7156H32.4488V59.0001C32.4488 64.7991 27.7477 69.5001 21.9488 69.5001H10.958C5.43517 69.5001 0.958008 65.0229 0.958008 59.5001V40.7156Z" fill="white"/>
<rect x="9.78247" y="27.2017" width="13.8409" height="23.1897" rx="6.92043" stroke="white" stroke-width="4"/>
<path d="M13.3572 50.3195C13.3572 49.8395 13.4541 49.3642 13.6425 48.9207C13.8309 48.4772 14.1071 48.0743 14.4552 47.7349C14.8033 47.3955 15.2166 47.1262 15.6714 46.9425C16.1263 46.7589 16.6138 46.6643 17.1061 46.6643C17.5984 46.6643 18.0859 46.7589 18.5407 46.9425C18.9956 47.1262 19.4088 47.3955 19.757 47.7349C20.1051 48.0743 20.3812 48.4772 20.5696 48.9207C20.758 49.3642 20.855 49.8395 20.855 50.3195C20.855 51.2889 20.46 52.2186 19.757 52.9041C19.0539 53.5896 18.1003 53.9747 17.1061 53.9747C16.1118 53.9747 15.1583 53.5896 14.4552 52.9041C13.7522 52.2186 13.3572 51.2889 13.3572 50.3195V50.3195Z" fill="#EF4041"/>
<path d="M11.9797 61.285L14.9789 51.0505H19.4775L22.4767 61.285H11.9797Z" fill="#EF4041"/>
</svg>
