<svg xmlns="http://www.w3.org/2000/svg" width="45" height="44" viewBox="0 0 45 44"><defs><clipPath id="vh7xa"><path d="M8.203 43.41l1.974-7.8h15.794l2.613-.6 1.8-1.2.6-1.8.6-1.549V6.771h12.6v36.638z"/></clipPath></defs><g><g><g><g><g><g><g/><g clip-path="url(#vh7xa)"><g><path fill="none" stroke="#fff" stroke-miterlimit="20" stroke-width="1.2" d="M19.584 42.81a6 6 0 0 1-6-6v-22.2a6 6 0 0 1 6-6h18a6 6 0 0 1 6 6v22.2a6 6 0 0 1-6 6z"/></g><g><path fill="none" stroke="#59789e" stroke-miterlimit="20" stroke-width="1.2" d="M19.184 38.01a2 2 0 0 1-2-2v-.8a2 2 0 0 1 2-2h17.6a2 2 0 0 1 2 2v.8a2 2 0 0 1-2 2z"/></g><g><path fill="none" stroke="#59789e" stroke-miterlimit="20" stroke-width="1.2" d="M19.184 29.01a2 2 0 0 1-2-2v-.8a2 2 0 0 1 2-2h17.6a2 2 0 0 1 2 2v.8a2 2 0 0 1-2 2z"/></g><g><path fill="none" stroke="#59789e" stroke-miterlimit="20" stroke-width="1.2" d="M19.184 20.01a2 2 0 0 1-2-2v-.8a2 2 0 0 1 2-2h17.6a2 2 0 0 1 2 2v.8a2 2 0 0 1-2 2z"/></g></g></g></g><g><path fill="none" stroke="#ef4041" stroke-miterlimit="20" stroke-width="1.2" d="M7.184 12.81a2 2 0 0 1-2-2v-.8a2 2 0 0 1 2-2h17.6a2 2 0 0 1 2 2v.8a2 2 0 0 1-2 2z"/></g><g><path fill="none" stroke="#59789e" stroke-miterlimit="20" stroke-width="1.2" d="M7.184 21.21a2 2 0 0 1-2-2v-.8a2 2 0 0 1 2-2h8.096a2 2 0 0 1 2 2v.8a2 2 0 0 1-2 2z"/></g><g><path fill="none" stroke="#fff" stroke-miterlimit="20" stroke-width="1.2" d="M7.584 35.61a6 6 0 0 1-6-6V7.41a6 6 0 0 1 6-6h18a6 6 0 0 1 6 6v22.2a6 6 0 0 1-6 6z"/></g><g><path fill="none" stroke="#59789e" stroke-miterlimit="20" stroke-width="1.2" d="M7.184 29.61a2 2 0 0 1-2-2v-.8a2 2 0 0 1 2-2h13.28a2 2 0 0 1 2 2v.8a2 2 0 0 1-2 2z"/></g></g></g></g></g></svg>