<svg xmlns="http://www.w3.org/2000/svg" width="44" height="43" viewBox="0 0 44 43"><defs><clipPath id="7962a"><path fill="#fff" d="M15.137 30.053a2.939 2.939 0 1 1 5.877 0 2.939 2.939 0 0 1-5.877 0z"/></clipPath><clipPath id="7962b"><path fill="#fff" d="M22.484 30.053a2.939 2.939 0 1 1 5.877 0 2.939 2.939 0 0 1-5.877 0z"/></clipPath></defs><g><g><g><g><g><path fill="none" stroke="#fff" stroke-miterlimit="20" stroke-width="1.2" d="M1.234 21.7C1.234 10.268 10.5 1 21.934 1c11.432 0 20.7 9.268 20.7 20.7 0 11.432-9.268 20.7-20.7 20.7-11.433 0-20.7-9.268-20.7-20.7z"/></g><g><path fill="none" stroke="#59789e" stroke-miterlimit="20" stroke-width="2.4" d="M15.137 30.053a2.939 2.939 0 1 1 5.877 0 2.939 2.939 0 0 1-5.877 0z" clip-path="url(&quot;#7962a&quot;)"/></g><g><path fill="none" stroke="#59789e" stroke-miterlimit="20" stroke-width="2.4" d="M22.484 30.053a2.939 2.939 0 1 1 5.877 0 2.939 2.939 0 0 1-5.877 0z" clip-path="url(&quot;#7962b&quot;)"/></g><g><g><path fill="#ef4041" d="M29.256 20.74h.6c0-.33.134-.627.353-.847.22-.22.518-.353.847-.353h2.278a2.405 2.405 0 0 0 2.4-2.4v-.319a2.405 2.405 0 0 0-2.4-2.4H12.603a1.628 1.628 0 0 0-1.253.565c-.3.35-.443.809-.443 1.287 0 .21.027.424.081.64l2.066 8.263c.16.635.553 1.171 1.05 1.56.498.388 1.113.639 1.768.64h11.584a2.405 2.405 0 0 0 2.4-2.4V20.74h-1.2v4.236c0 .33-.134.627-.353.848-.22.22-.518.352-.847.352H15.872c-.334.003-.717-.14-1.03-.385-.314-.244-.545-.581-.624-.906l-2.066-8.263a1.435 1.435 0 0 1-.045-.349c0-.242.072-.41.155-.505.085-.094.17-.142.341-.147h20.73c.33 0 .628.134.848.354.219.22.353.517.353.846v.319c0 .33-.134.627-.353.847-.22.219-.518.353-.847.353h-2.278a2.405 2.405 0 0 0-2.4 2.4z"/></g></g></g></g></g></g></svg>