<svg width="71" height="73" viewBox="0 0 71 73" fill="none" xmlns="http://www.w3.org/2000/svg">
<path d="M26.6251 52.2917V46.375M35.5001 52.2917V40.4583M44.3751 52.2917V34.5417M50.2917 64.125H20.7084C19.1392 64.125 17.6343 63.5016 16.5247 62.392C15.4151 61.2825 14.7917 59.7775 14.7917 58.2083V16.7917C14.7917 15.2225 15.4151 13.7175 16.5247 12.608C17.6343 11.4984 19.1392 10.875 20.7084 10.875H37.2337C38.0182 10.8752 38.7705 11.187 39.3252 11.7418L55.3416 27.7582C55.8965 28.3129 56.2082 29.0652 56.2084 29.8497V58.2083C56.2084 59.7775 55.5851 61.2825 54.4755 62.392C53.3659 63.5016 51.8609 64.125 50.2917 64.125Z" stroke="white" stroke-width="6" stroke-linecap="round" stroke-linejoin="round"/>
<path d="M41.9299 15.013C41.9299 8.93 46.8599 4 52.9429 4C59.0249 4 63.9559 8.93 63.9559 15.012C63.9559 21.095 59.0259 26.025 52.9429 26.025C46.8609 26.025 41.9299 21.095 41.9299 15.012V15.013Z" stroke="#EF4041" stroke-width="7" stroke-miterlimit="20"/>
<path d="M45.516 23.127L33 35.643" stroke="#EF4041" stroke-width="7" stroke-miterlimit="20"/>
</svg>
