<?xml version="1.0" encoding="utf-8"?><svg xmlns="http://www.w3.org/2000/svg" width="223.94" height="62.36" viewBox="0 0 223.94 62.36"><linearGradient id="a" gradientUnits="userSpaceOnUse" x1="2" y1="31.563" x2="62.875" y2="31.563"><stop offset="0" stop-color="#ef4041" stop-opacity="0"/><stop offset=".963" stop-color="#ef4041" stop-opacity=".963"/><stop offset="1" stop-color="#ef4041"/></linearGradient><path fill="url(#a)" d="M56.206 62H8.669A6.677 6.677 0 0 1 2 55.33V7.794a6.676 6.676 0 0 1 6.669-6.669h47.536a6.676 6.676 0 0 1 6.669 6.669V55.33A6.676 6.676 0 0 1 56.206 62zM8.669 3.125A4.675 4.675 0 0 0 4 7.794V55.33A4.675 4.675 0 0 0 8.669 60h47.536a4.674 4.674 0 0 0 4.669-4.67V7.794a4.674 4.674 0 0 0-4.669-4.669H8.669z"/><g fill="#FFF"><path d="M14.588 9.702c.6 0 1.116.044 1.548.132s.736.168.912.242l-.374 1.756a3.766 3.766 0 0 0-.747-.252 4.993 4.993 0 0 0-1.186-.121c-.952 0-1.618.26-1.999.779-.381.52-.571 1.219-.571 2.097v.988h4.392v1.713h-4.392v9.706H10.13v-12.45c0-1.464.358-2.595 1.076-3.393s1.845-1.197 3.382-1.197zM18.891 14.665a13.694 13.694 0 0 0 2.438-1.241 9.982 9.982 0 0 0 2.174-1.899h1.45v15.217H22.91V14.357c-.176.161-.392.33-.648.505a8.897 8.897 0 0 1-.834.505c-.3.161-.615.315-.944.461-.33.146-.648.271-.955.374l-.638-1.537zM34.197 25.249c1.303 0 2.236-.256 2.799-.769.563-.512.846-1.2.846-2.064 0-.556-.117-1.025-.352-1.406a2.688 2.688 0 0 0-.922-.911 4.017 4.017 0 0 0-1.328-.483 8.355 8.355 0 0 0-1.548-.143h-.527v-1.668h.725c.366 0 .743-.037 1.131-.11a3.246 3.246 0 0 0 1.065-.396c.322-.19.585-.45.791-.779.205-.33.308-.743.308-1.241 0-.41-.074-.761-.22-1.054a2.112 2.112 0 0 0-1.416-1.131 4.039 4.039 0 0 0-.999-.121c-.703 0-1.299.103-1.79.307a7.813 7.813 0 0 0-1.241.637l-.791-1.559a7.094 7.094 0 0 1 1.581-.768 8.574 8.574 0 0 1 1.087-.296 5.95 5.95 0 0 1 1.219-.121c.805 0 1.5.099 2.086.296.585.198 1.068.476 1.449.834.381.359.666.783.856 1.274.19.49.286 1.021.286 1.592 0 .791-.227 1.468-.681 2.031a4.473 4.473 0 0 1-1.647 1.285c.395.117.776.285 1.142.505.366.22.684.498.955.834.271.337.49.725.659 1.164.168.439.252.93.252 1.472 0 .659-.113 1.27-.34 1.833s-.579 1.05-1.054 1.46c-.476.41-1.072.732-1.79.966s-1.566.352-2.547.352c-.381 0-.772-.03-1.175-.088a12.463 12.463 0 0 1-2.053-.484 4.9 4.9 0 0 1-.571-.219l.396-1.779c.249.117.662.271 1.241.461.577.192 1.283.287 2.118.287z"/></g><g><path fill="#FFF" d="M89.75 42.885c-1.4 0-2.637-.222-3.71-.664-1.074-.443-1.966-1.08-2.678-1.908s-1.254-1.82-1.627-2.975c-.374-1.155-.56-2.434-.56-3.833 0-1.423.193-2.718.578-3.885.385-1.167.939-2.17 1.663-3.01a7.34 7.34 0 0 1 2.625-1.942c1.026-.455 2.182-.683 3.465-.683.98 0 1.896.082 2.748.245.852.164 1.511.374 1.978.63l-.595 1.96a7.378 7.378 0 0 0-1.575-.56c-.583-.14-1.365-.21-2.345-.21-2.007 0-3.529.647-4.567 1.943-1.039 1.295-1.558 3.132-1.558 5.512 0 1.073.117 2.06.35 2.958.233.898.613 1.668 1.138 2.31s1.201 1.144 2.03 1.505c.828.362 1.837.543 3.027.543.98 0 1.803-.111 2.468-.333s1.149-.413 1.453-.577l.49 1.96c-.42.233-1.08.461-1.978.683-.901.219-1.84.331-2.82.331zM102.594 42.885c-.76-1.428-1.497-2.91-2.211-4.449a85.915 85.915 0 0 1-3.706-9.392 61.973 61.973 0 0 1-1.327-4.639h2.415c.256 1.12.582 2.328.979 3.623a81.127 81.127 0 0 0 1.346 4.008 93.812 93.812 0 0 0 1.66 4.235 61.362 61.362 0 0 0 1.983 4.269c.52-1.441.98-2.804 1.381-4.086s.772-2.558 1.115-3.829c.342-1.271.672-2.571.99-3.9.318-1.329.643-2.769.976-4.32h2.276c-.76 3.386-1.614 6.68-2.562 9.878-.947 3.2-1.982 6.125-3.104 8.777-.443 1.049-.899 1.953-1.368 2.712-.469.758-.99 1.382-1.563 1.872a5.566 5.566 0 0 1-2.003 1.086c-.762.232-1.658.35-2.688.35-.586 0-1.119-.07-1.6-.21-.48-.14-.779-.245-.896-.315l.455-1.89c.093.069.356.169.79.298.433.127.882.191 1.351.191.655 0 1.245-.069 1.772-.209.526-.141 1-.38 1.421-.718a5.284 5.284 0 0 0 1.14-1.313c.336-.536.663-1.213.978-2.029zM115.439 25.49c.396-.303 1.032-.624 1.907-.963.875-.338 1.907-.507 3.098-.507 1.307 0 2.468.233 3.482.7s1.872 1.12 2.573 1.96c.699.84 1.23 1.837 1.592 2.992.361 1.155.543 2.421.543 3.798 0 1.469-.217 2.787-.648 3.954s-1.038 2.159-1.819 2.976a7.854 7.854 0 0 1-2.8 1.872c-1.086.432-2.293.647-3.623.647-1.609 0-2.939-.105-3.99-.314-1.05-.211-1.913-.432-2.59-.666V15.76l2.275-.42v10.15zm0 14.875c.35.117.869.227 1.557.332.688.105 1.594.158 2.713.158 1.961 0 3.535-.636 4.725-1.908 1.191-1.271 1.785-3.098 1.785-5.477 0-1.004-.104-1.955-.314-2.853-.21-.898-.549-1.68-1.016-2.345s-1.079-1.195-1.837-1.592c-.759-.396-1.697-.595-2.817-.595-.537 0-1.051.053-1.54.158-.49.105-.944.239-1.365.402a7.59 7.59 0 0 0-1.89 1.05v12.67zM131.398 33.436c0-1.587.229-2.97.684-4.148s1.05-2.164 1.785-2.958c.734-.793 1.574-1.383 2.52-1.768s1.919-.578 2.922-.578c2.217 0 3.984.724 5.303 2.17 1.318 1.447 1.979 3.675 1.979 6.685a7.472 7.472 0 0 1-.071 1.085h-12.705c.07 2.218.617 3.921 1.645 5.11s2.66 1.785 4.9 1.785c1.236 0 2.217-.117 2.939-.35.723-.234 1.248-.432 1.575-.596l.42 1.96c-.327.187-.939.409-1.837.665-.898.256-1.955.385-3.168.385-1.587 0-2.939-.233-4.061-.699-1.119-.467-2.041-1.121-2.764-1.961-.725-.84-1.249-1.837-1.576-2.992-.325-1.153-.49-2.418-.49-3.795zM144.244 32c-.047-1.89-.49-3.36-1.33-4.41-.84-1.05-2.029-1.575-3.57-1.575-.816 0-1.545.164-2.188.49a5.572 5.572 0 0 0-1.68 1.313 6.091 6.091 0 0 0-1.12 1.908 7.787 7.787 0 0 0-.472 2.275h10.36zM156.738 24.055c.746 0 1.453.058 2.117.175.666.117 1.126.233 1.383.35l-.455 1.96c-.188-.093-.566-.192-1.137-.297-.572-.105-1.325-.158-2.258-.158-.98 0-1.768.07-2.363.21-.595.14-.985.257-1.172.35V42.5h-2.275V25.245c.583-.257 1.389-.519 2.415-.788 1.027-.268 2.276-.402 3.745-.402z"/><path fill="#EF4041" d="M164.719 24.405h7.209v1.925h-7.209v9.625c0 1.027.087 1.861.262 2.502.176.643.426 1.139.753 1.488.326.35.723.583 1.19.699.466.117.979.176 1.539.176.957 0 1.727-.111 2.311-.333.583-.222 1.037-.425 1.365-.612l.56 1.891c-.327.209-.898.449-1.715.717a8.49 8.49 0 0 1-2.66.402c-1.12 0-2.06-.146-2.817-.438-.759-.291-1.365-.734-1.82-1.33-.455-.595-.775-1.335-.963-2.223-.187-.887-.279-1.936-.279-3.149v-16.66l2.275-.42v5.74zM173.958 33.436c0-1.587.228-2.97.683-4.148s1.051-2.164 1.785-2.958c.734-.793 1.574-1.383 2.52-1.768s1.92-.578 2.923-.578c2.216 0 3.983.724 5.303 2.17 1.317 1.447 1.978 3.675 1.978 6.685 0 .188-.006.373-.018.561a6.437 6.437 0 0 1-.053.524h-12.705c.07 2.218.618 3.921 1.645 5.11 1.027 1.189 2.66 1.785 4.9 1.785 1.236 0 2.217-.117 2.94-.35.723-.234 1.247-.432 1.575-.596l.42 1.96c-.327.187-.939.409-1.838.665s-1.955.385-3.168.385c-1.586 0-2.939-.233-4.06-.699-1.12-.467-2.042-1.121-2.765-1.961-.724-.84-1.248-1.837-1.575-2.992-.327-1.153-.49-2.418-.49-3.795zM186.803 32c-.047-1.89-.49-3.36-1.33-4.41-.84-1.05-2.029-1.575-3.569-1.575-.817 0-1.546.164-2.188.49a5.576 5.576 0 0 0-1.681 1.313 6.07 6.07 0 0 0-1.119 1.908 7.788 7.788 0 0 0-.473 2.275h10.36zM200.627 42.885c-1.399 0-2.637-.222-3.709-.664-1.074-.443-1.967-1.08-2.678-1.908-.713-.828-1.255-1.82-1.628-2.975-.374-1.155-.56-2.434-.56-3.833 0-1.423.192-2.718.577-3.885.386-1.167.938-2.17 1.663-3.01a7.34 7.34 0 0 1 2.625-1.942c1.025-.455 2.182-.683 3.465-.683.979 0 1.895.082 2.747.245.852.164 1.511.374 1.978.63l-.596 1.96a7.37 7.37 0 0 0-1.574-.56c-.584-.14-1.365-.21-2.346-.21-2.006 0-3.529.647-4.566 1.943-1.039 1.295-1.559 3.132-1.559 5.512 0 1.073.117 2.06.351 2.958s.612 1.668 1.138 2.31 1.201 1.144 2.029 1.505c.828.362 1.838.543 3.027.543.98 0 1.803-.111 2.469-.333.664-.222 1.148-.413 1.452-.577l.489 1.96c-.42.233-1.079.461-1.977.683-.897.219-1.837.331-2.817.331zM208.152 42.5V15.76l2.275-.42v9.59c.746-.28 1.505-.496 2.275-.647.77-.152 1.539-.228 2.31-.228 1.399 0 2.566.198 3.5.595.933.397 1.68.962 2.24 1.698.56.735.95 1.616 1.172 2.643s.333 2.158.333 3.395V42.5h-2.275v-9.38c0-1.283-.087-2.368-.263-3.255-.175-.887-.467-1.61-.875-2.17s-.95-.962-1.627-1.208c-.677-.245-1.528-.367-2.556-.367-.396 0-.822.035-1.277.105-.455.07-.881.146-1.277.228-.396.082-.752.169-1.067.262-.315.094-.52.164-.612.21V42.5h-2.276z"/></g></svg>