<svg xmlns="http://www.w3.org/2000/svg" width="83" height="69" viewBox="0 0 83 69"><g><g><g><g><g><path fill="#fff" d="M41.701 68.26v-68h18v68z"/></g><g><path fill="#345078" d="M18.701 25.26a9 9 0 1 1 18 0 9 9 0 0 1-18 0z"/></g><g><path fill="#59789e" d="M18.701 43.26a9 9 0 1 1 18 0 9 9 0 0 1-18 0z"/></g><g><path fill="#59789e" d="M.701 25.26a9 9 0 1 1 18 0 9 9 0 0 1-18 0z"/></g><g><path fill="#345078" d="M.701 43.26a9 9 0 1 1 18 0 9 9 0 0 1-18 0z"/></g><g><path fill="#ef4041" d="M64.701 34.26a9 9 0 1 1 18 0 9 9 0 0 1-18 0z"/></g></g></g></g></g></svg>