<svg xmlns="http://www.w3.org/2000/svg" width="175" height="173" viewBox="0 0 175 173"><defs><clipPath id="myk3a"><path d="M156.2 22.938h-17.606c.058.683.105 1.365.105 2.063v99.565c0 13.75-18.75 32.5-32.5 32.5H43.807c0 13.751 11.25 22.501 25 22.501H156.2c13.75 0 25-11.25 25-25V47.939c0-13.75-11.25-25-25-25z"/></clipPath></defs><g><g><g><g><g><g/><g clip-path="url(#myk3a)"><g><path fill="#fff" d="M75.003 172.505c-13.808 0-25.001-11.193-25.001-25V55c0-13.807 11.193-25 25-25h75.003c13.807 0 25 11.193 25 25v92.503c0 13.808-11.193 25-25 25z"/></g><g><path fill="#345078" d="M75.002 152.504c-5.522 0-10-4.477-10-10s4.478-10 10-10h70.003c5.523 0 10 4.477 10 10s-4.477 10-10 10z"/><path fill="none" stroke="#345078" stroke-miterlimit="20" stroke-width="5" d="M75.002 152.504c-5.522 0-10-4.477-10-10v0c0-5.523 4.478-10 10-10h70.003c5.523 0 10 4.477 10 10v0c0 5.523-4.477 10-10 10z"/></g><g><path fill="#345078" d="M75.002 115.003c-5.522 0-10-4.477-10-10s4.478-10 10-10h70.003c5.523 0 10 4.477 10 10s-4.477 10-10 10z"/><path fill="none" stroke="#345078" stroke-miterlimit="20" stroke-width="5" d="M75.002 115.003c-5.522 0-10-4.477-10-10v0c0-5.523 4.478-10 10-10h70.003c5.523 0 10 4.477 10 10v0c0 5.523-4.477 10-10 10z"/></g><g><path fill="#345078" d="M75.002 77.502c-5.522 0-10-4.477-10-10s4.478-10 10-10h70.003c5.523 0 10 4.477 10 10s-4.477 10-10 10z"/><path fill="none" stroke="#345078" stroke-miterlimit="20" stroke-width="5" d="M75.002 77.502c-5.522 0-10-4.477-10-10v0c0-5.523 4.478-10 10-10h70.003c5.523 0 10 4.477 10 10v0c0 5.523-4.477 10-10 10z"/></g></g></g></g><g><path fill="#fff" d="M25.001 142.504c-13.807 0-25-11.193-25-25V25C0 11.193 11.194 0 25 0h75.002c13.808 0 25.001 11.193 25.001 25v92.503c0 13.808-11.193 25-25 25z"/></g><g><path fill="#e84143" d="M25.001 47.501c-5.523 0-10-4.477-10-10s4.477-10 10-10h70.002c5.523 0 10 4.477 10 10s-4.477 10-10 10z"/><path fill="none" stroke="#ef4041" stroke-miterlimit="20" stroke-width="5" d="M25.001 47.501c-5.523 0-10-4.477-10-10v0c0-5.523 4.477-10 10-10h70.002c5.523 0 10 4.477 10 10v0c0 5.523-4.477 10-10 10z"/></g><g><path fill="#345078" d="M25.001 82.502c-5.523 0-10-4.477-10-10s4.477-10 10-10h30.401c5.523 0 10 4.477 10 10s-4.477 10-10 10z"/><path fill="none" stroke="#345078" stroke-miterlimit="20" stroke-width="5" d="M25.001 82.502c-5.523 0-10-4.477-10-10v0c0-5.523 4.477-10 10-10h30.401c5.523 0 10 4.477 10 10v0c0 5.523-4.477 10-10 10z"/></g><g><path fill="#345078" d="M25.001 117.503c-5.523 0-10-4.477-10-10s4.477-10 10-10h52.002c5.523 0 10 4.477 10 10s-4.477 10-10 10z"/><path fill="none" stroke="#345078" stroke-miterlimit="20" stroke-width="5" d="M25.001 117.503c-5.523 0-10-4.477-10-10v0c0-5.523 4.477-10 10-10h52.002c5.523 0 10 4.477 10 10v0c0 5.523-4.477 10-10 10z"/></g></g></g></g></svg>