<svg xmlns="http://www.w3.org/2000/svg" width="174" height="173" viewBox="0 0 174 173"><g><g><g><g><path fill="#fff" d="M.75 86.25C.75 38.615 39.365 0 87 0s86.25 38.615 86.25 86.25S134.635 172.5 87 172.5.75 133.885.75 86.25z"/></g><g><g><path fill="#ef4041" d="M68.737 39.4c-7.79 0-15.58 2.973-21.525 8.915-11.887 11.887-11.887 31.163 0 43.05 7.053 7.053 20.885 8.168 20.885 8.168 2.743.222 5.165 2.644 5.388 5.387 0 0 1.115 13.832 8.167 20.885 5.943 5.942 13.735 8.915 21.526 8.915 7.79 0 15.58-2.973 21.524-8.915 11.888-11.89 11.888-31.163 0-43.05-7.052-7.053-20.884-8.168-20.884-8.168-2.743-.222-5.166-2.645-5.388-5.387 0 0-1.115-13.833-8.168-20.885-5.945-5.942-13.735-8.915-21.524-8.915z"/></g></g><g><path fill="#345078" d="M55.75 68.75c0-6.904 5.596-12.5 12.5-12.5s12.5 5.596 12.5 12.5-5.596 12.5-12.5 12.5-12.5-5.596-12.5-12.5z"/></g><g><path fill="#345078" d="M90.75 103.75c0-6.904 5.596-12.5 12.5-12.5s12.5 5.596 12.5 12.5-5.596 12.5-12.5 12.5-12.5-5.596-12.5-12.5z"/></g></g></g></g></svg>