<svg xmlns="http://www.w3.org/2000/svg" width="200" height="173" viewBox="0 0 200 173"><g><g><g><g><g><path fill="#fff" d="M8.75 86.25C8.75 38.615 47.365 0 95 0s86.25 38.615 86.25 86.25S142.635 172.5 95 172.5 8.75 133.885 8.75 86.25z"/></g><g><path fill="#345078" d="M66.68 122.355c0-6.763 5.482-12.245 12.245-12.245 6.762 0 12.245 5.482 12.245 12.245 0 6.763-5.483 12.245-12.245 12.245-6.763 0-12.245-5.482-12.245-12.245z"/></g><g><path fill="#345078" d="M97.292 122.355c0-6.763 5.482-12.245 12.245-12.245 6.763 0 12.245 5.482 12.245 12.245 0 6.763-5.482 12.245-12.245 12.245-6.763 0-12.245-5.482-12.245-12.245z"/></g><g><path fill="#ef4041" d="M142.5 55.922H56.122c-2.052-.017-3.985.888-5.22 2.356-1.247 1.46-1.847 3.367-1.847 5.362 0 .87.112 1.765.34 2.667L58 100.732c.67 2.648 2.305 4.88 4.375 6.505 2.075 1.613 4.64 2.658 7.37 2.665h48.265c5.517-.01 9.99-4.482 10-10V82.25c0-1.373.557-2.613 1.47-3.53a4.981 4.981 0 0 1 3.53-1.47h9.49c5.517-.01 9.99-4.483 10-10v-1.328c-.01-5.515-4.483-9.99-10-10z"/></g></g></g></g></g></svg>