<svg xmlns="http://www.w3.org/2000/svg" width="34" height="43" viewBox="0 0 34 43"><defs><clipPath id="7j99a"><path fill="#fff" d="M7.229 24.903a5.122 5.122 0 1 1 10.244 0 5.122 5.122 0 0 1-10.244 0z"/></clipPath><clipPath id="7j99b"><path fill="#fff" d="M7.229 14.522a5.122 5.122 0 1 1 10.244 0 5.122 5.122 0 0 1-10.244 0z"/></clipPath><clipPath id="7j99c"><path fill="#fff" d="M17.685 24.903a5.122 5.122 0 1 1 10.244 0 5.122 5.122 0 0 1-10.244 0z"/></clipPath><clipPath id="7j99d"><path fill="#fff" d="M17.685 14.522a5.122 5.122 0 1 1 10.244 0 5.122 5.122 0 0 1-10.244 0z"/></clipPath></defs><g><g><g><g><path fill="none" stroke="#fff" stroke-miterlimit="20" stroke-width="1.2" d="M33.266 1v0h-31.8v25.21c0 8.781 7.118 15.9 15.9 15.9 8.781 0 15.9-7.119 15.9-15.9v-.01 0z"/></g><g><path fill="none" stroke="#ef4041" stroke-miterlimit="20" stroke-width="2.4" d="M7.229 24.903a5.122 5.122 0 1 1 10.244 0 5.122 5.122 0 0 1-10.244 0z" clip-path="url(&quot;#7j99a&quot;)"/></g><g><path fill="none" stroke="#59789e" stroke-miterlimit="20" stroke-width="2.4" d="M7.229 14.522a5.122 5.122 0 1 1 10.244 0 5.122 5.122 0 0 1-10.244 0z" clip-path="url(&quot;#7j99b&quot;)"/></g><g><path fill="none" stroke="#59789e" stroke-miterlimit="20" stroke-width="2.4" d="M17.685 24.903a5.122 5.122 0 1 1 10.244 0 5.122 5.122 0 0 1-10.244 0z" clip-path="url(&quot;#7j99c&quot;)"/></g><g><path fill="none" stroke="#ef4041" stroke-miterlimit="20" stroke-width="2.4" d="M17.685 14.522a5.122 5.122 0 1 1 10.244 0 5.122 5.122 0 0 1-10.244 0z" clip-path="url(&quot;#7j99d&quot;)"/></g></g></g></g></svg>