<svg xmlns="http://www.w3.org/2000/svg" width="43" height="43" viewBox="0 0 43 43"><g><g><g><path fill="none" stroke="#fff" stroke-miterlimit="20" stroke-width="1.2" d="M.703 21.605c0-11.433 9.268-20.7 20.7-20.7 11.432 0 20.7 9.267 20.7 20.7 0 11.432-9.268 20.7-20.7 20.7-11.432 0-20.7-9.268-20.7-20.7z"/></g><g><g><path fill="#ef4041" d="M17.02 10.36a7.306 7.306 0 0 0-5.166 12.472c1.693 1.693 5.013 1.96 5.013 1.96.658.054 1.24.635 1.293 1.293 0 0 .267 3.32 1.96 5.013a7.284 7.284 0 0 0 5.166 2.14 7.306 7.306 0 0 0 5.166-12.472c-1.693-1.693-5.013-1.96-5.013-1.96-.658-.054-1.24-.635-1.293-1.293 0 0-.267-3.32-1.96-5.013a7.285 7.285 0 0 0-5.166-2.14zm0 1.2c1.63 0 3.165.635 4.318 1.789 1.124 1.123 1.545 3.457 1.613 4.26.1 1.242 1.15 2.292 2.39 2.392.804.068 3.139.49 4.262 1.613a6.113 6.113 0 0 1 0 8.635 6.068 6.068 0 0 1-4.317 1.788 6.067 6.067 0 0 1-4.318-1.788c-1.124-1.123-1.545-3.458-1.613-4.26-.1-1.242-1.15-2.292-2.39-2.392-.804-.068-3.139-.49-4.262-1.613a6.113 6.113 0 0 1 0-8.635 6.065 6.065 0 0 1 4.317-1.788"/></g></g></g></g></svg>