<svg xmlns="http://www.w3.org/2000/svg" width="43" height="43" viewBox="0 0 43 43"><defs><clipPath id="9450a"><path fill="#fff" d="M5.146 18.458a4.477 4.477 0 1 1 8.954 0 4.477 4.477 0 0 1-8.954 0z"/></clipPath><clipPath id="9450b"><path fill="#fff" d="M16.933 14.858a4.477 4.477 0 1 1 8.954 0 4.477 4.477 0 0 1-8.954 0z"/></clipPath><clipPath id="9450c"><path fill="#fff" d="M28.933 18.458a4.477 4.477 0 1 1 8.954 0 4.477 4.477 0 0 1-8.954 0z"/></clipPath></defs><g><g><g><g><g><g><path fill="#59789e" d="M17.617 41.8V23.2c0-.99.403-1.887 1.057-2.542a3.588 3.588 0 0 1 2.543-1.058h.6c.989 0 1.887.404 2.542 1.058a3.588 3.588 0 0 1 1.058 2.542v18.6h1.2V23.2a4.812 4.812 0 0 0-4.8-4.8h-.6a4.812 4.812 0 0 0-4.8 4.8v18.6z"/></g><g><path fill="#59789e" d="M29.617 41.2V26.8c0-.99.403-1.887 1.057-2.542a3.588 3.588 0 0 1 2.543-1.058h.6c.989 0 1.887.404 2.542 1.058a3.588 3.588 0 0 1 1.058 2.542V34h1.2v-7.2a4.812 4.812 0 0 0-4.8-4.8h-.6a4.812 4.812 0 0 0-4.8 4.8v14.4z"/></g><g><path fill="#59789e" d="M14.617 41.2V26.8a4.812 4.812 0 0 0-4.8-4.8h-.6a4.812 4.812 0 0 0-4.8 4.8V34h1.2v-7.2c0-.99.403-1.887 1.057-2.542A3.588 3.588 0 0 1 9.217 23.2h.6c.989 0 1.887.404 2.542 1.058a3.588 3.588 0 0 1 1.058 2.542v14.4z"/></g></g><g><path fill="none" stroke="#fff" stroke-miterlimit="20" stroke-width="1.2" d="M.817 21.7c0-11.432 9.267-20.7 20.7-20.7 11.432 0 20.7 9.268 20.7 20.7 0 11.432-9.268 20.7-20.7 20.7-11.433 0-20.7-9.268-20.7-20.7z"/></g><g><path fill="none" stroke="#ef4041" stroke-miterlimit="20" stroke-width="2.4" d="M5.146 18.458a4.477 4.477 0 1 1 8.954 0 4.477 4.477 0 0 1-8.954 0z" clip-path="url(&quot;#9450a&quot;)"/></g><g><path fill="none" stroke="#ef4041" stroke-miterlimit="20" stroke-width="2.4" d="M16.933 14.858a4.477 4.477 0 1 1 8.954 0 4.477 4.477 0 0 1-8.954 0z" clip-path="url(&quot;#9450b&quot;)"/></g><g><path fill="none" stroke="#ef4041" stroke-miterlimit="20" stroke-width="2.4" d="M28.933 18.458a4.477 4.477 0 1 1 8.954 0 4.477 4.477 0 0 1-8.954 0z" clip-path="url(&quot;#9450c&quot;)"/></g></g></g></g></g></svg>