<svg width="80" height="67" viewBox="0 0 80 67" fill="none" xmlns="http://www.w3.org/2000/svg">
<g clip-path="url(#clip0_327_1187)">
<path d="M4 17.6667L35.56 38.4876C36.8746 39.3556 38.4196 39.8188 40 39.8188C41.5804 39.8188 43.1254 39.3556 44.44 38.4876L76 17.6667M12 61.2084H68C70.1217 61.2084 72.1566 60.3743 73.6569 58.8897C75.1571 57.405 76 55.3914 76 53.2918V13.7084C76 11.6088 75.1571 9.59515 73.6569 8.11049C72.1566 6.62582 70.1217 5.79175 68 5.79175H12C9.87827 5.79175 7.84344 6.62582 6.34315 8.11049C4.84285 9.59515 4 11.6088 4 13.7084V53.2918C4 55.3914 4.84285 57.405 6.34315 58.8897C7.84344 60.3743 9.87827 61.2084 12 61.2084Z" stroke="#345078" stroke-width="7" stroke-linecap="round" stroke-linejoin="round"/>
<path d="M27 27.6072H53.9597V41.75C53.9597 47.549 49.2587 52.25 43.4597 52.25H37C31.4771 52.25 27 47.7729 27 42.25V27.6072Z" fill="white"/>
<rect x="34.2671" y="15.75" width="12.4249" height="20.4286" rx="6.21245" stroke="white" stroke-width="4"/>
<path d="M37.6152 35.8292C37.6152 35.4183 37.6983 35.0113 37.8595 34.6317C38.0208 34.252 38.2572 33.9071 38.5553 33.6165C38.8533 33.3259 39.2071 33.0954 39.5965 32.9382C39.9859 32.7809 40.4032 32.7 40.8247 32.7C41.2462 32.7 41.6635 32.7809 42.0529 32.9382C42.4423 33.0954 42.7961 33.3259 43.0942 33.6165C43.3922 33.9071 43.6286 34.252 43.7899 34.6317C43.9512 35.0113 44.0342 35.4183 44.0342 35.8292C44.0342 36.6591 43.6961 37.4551 43.0942 38.0419C42.4923 38.6288 41.6759 38.9585 40.8247 38.9585C39.9735 38.9585 39.1572 38.6288 38.5553 38.0419C37.9534 37.4551 37.6152 36.6591 37.6152 35.8292V35.8292Z" fill="#EF4041"/>
<path d="M36.4358 45.217L39.0034 36.4551H42.8548L45.4224 45.217H36.4358Z" fill="#EF4041"/>
</g>
<defs>
<clipPath id="clip0_327_1187">
<rect width="80" height="67" fill="white"/>
</clipPath>
</defs>
</svg>
