<svg width="63" height="63" viewBox="0 0 63 63" fill="none" xmlns="http://www.w3.org/2000/svg">
<path d="M10.5 10.5001V23.6251H12.0277M12.0277 23.6251C13.7704 19.3151 16.8937 15.7052 20.9082 13.3609C24.9227 11.0167 29.6016 10.0706 34.2115 10.671C38.8215 11.2715 43.1019 13.3844 46.3821 16.6787C49.6623 19.973 51.7567 24.2626 52.3372 28.8751M12.0277 23.6251H23.625M52.5 52.5001V39.3751H50.9749M50.9749 39.3751C49.2298 43.6824 46.1056 47.2896 42.0914 49.6317C38.0773 51.9738 33.3998 52.9188 28.7913 52.3186C24.1827 51.7184 19.9033 49.607 16.6229 46.3148C13.3425 43.0227 11.2464 38.7357 10.6627 34.1251M50.9749 39.3751H39.375" stroke="white" stroke-width="6" stroke-linecap="round" stroke-linejoin="round"/>
</svg>
