<svg xmlns="http://www.w3.org/2000/svg" width="69" height="65" viewBox="0 0 69 65"><g><g><g><g><g><path fill="#fff" d="M16.457 34.058a17.948 17.948 0 0 1 1.415-7.02 18.13 18.13 0 0 1 6.545-7.945A17.907 17.907 0 0 1 34.5 16.016c2.513 0 4.867.505 7.021 1.415a18.135 18.135 0 0 1 7.945 6.545 17.915 17.915 0 0 1 3.077 10.082h15.582a33.558 33.558 0 0 0-9.847-23.776A33.558 33.558 0 0 0 34.498.434a33.556 33.556 0 0 0-23.776 9.848A33.558 33.558 0 0 0 .875 34.058z"/></g></g><g><g><path fill="#ef4041" d="M47.258 21.3a18.077 18.077 0 0 1 3.87 5.738 17.948 17.948 0 0 1 1.414 7.02h15.582a33.555 33.555 0 0 0-9.847-23.776L47.258 21.3z"/></g></g><g><path fill="#fff" d="M23.199 36.812l21.419-12.58-12.58 21.419"/></g><g><path fill="#59789e" d="M27.26 57.974a6.592 6.592 0 1 1 13.186 0 6.592 6.592 0 0 1-13.185 0z"/></g><g><path fill="#59789e" d="M13.354 57.974a6.592 6.592 0 1 1 13.185 0 6.592 6.592 0 0 1-13.185 0z"/></g><g><path fill="#ef4041" d="M41.301 57.974a6.592 6.592 0 1 1 13.185 0 6.592 6.592 0 0 1-13.185 0z"/></g></g></g></g></svg>