<svg xmlns="http://www.w3.org/2000/svg" width="96" height="64" viewBox="0 0 96 64"><g><g><g><g><path fill="#ef4041" d="M0 16C0 7.163 7.163 0 16 0s16 7.163 16 16-7.163 16-16 16S0 24.837 0 16z"/></g><g><path fill="#345078" d="M32 8a8 8 0 1 1 16 0 8 8 0 0 1-16 0z"/></g><g><path fill="#59789e" d="M32 24a8 8 0 1 1 16 0 8 8 0 0 1-16 0z"/></g><g><path fill="#345078" d="M32 40a8 8 0 1 1 16 0 8 8 0 0 1-16 0z"/></g><g><path fill="#59789e" d="M32 56a8 8 0 1 1 16 0 8 8 0 0 1-16 0z"/></g><g><path fill="#ef4041" d="M48 8a8 8 0 1 1 16 0 8 8 0 0 1-16 0z"/></g><g><path fill="#345078" d="M48 24a8 8 0 1 1 16 0 8 8 0 0 1-16 0z"/></g><g><path fill="#59789e" d="M48 40a8 8 0 1 1 16 0 8 8 0 0 1-16 0z"/></g><g><path fill="#ef4041" d="M48 56a8 8 0 1 1 16 0 8 8 0 0 1-16 0z"/></g><g><path fill="#59789e" d="M64 4a4 4 0 1 1 8 0 4 4 0 0 1-8 0z"/></g><g><path fill="#345078" d="M64 12a4 4 0 1 1 8 0 4 4 0 0 1-8 0z"/></g><g><path fill="#59789e" d="M64 20a4 4 0 1 1 8 0 4 4 0 0 1-8 0z"/></g><g><path fill="#345078" d="M64 28a4 4 0 1 1 8 0 4 4 0 0 1-8 0z"/></g><g><path fill="#345078" d="M72 4a4 4 0 1 1 8 0 4 4 0 0 1-8 0z"/></g><g><path fill="#59789e" d="M72 12a4 4 0 1 1 8 0 4 4 0 0 1-8 0z"/></g><g><path fill="#345078" d="M72 20a4 4 0 1 1 8 0 4 4 0 0 1-8 0z"/></g><g><path fill="#59789e" d="M72 28a4 4 0 1 1 8 0 4 4 0 0 1-8 0z"/></g><g><path fill="#59789e" d="M64 36a4 4 0 1 1 8 0 4 4 0 0 1-8 0z"/></g><g><path fill="#345078" d="M64 44a4 4 0 1 1 8 0 4 4 0 0 1-8 0z"/></g><g><path fill="#59789e" d="M64 52a4 4 0 1 1 8 0 4 4 0 0 1-8 0z"/></g><g><path fill="#345078" d="M64 60a4 4 0 1 1 8 0 4 4 0 0 1-8 0z"/></g><g><path fill="#345078" d="M72 36a4 4 0 1 1 8 0 4 4 0 0 1-8 0z"/></g><g><path fill="#59789e" d="M72 44a4 4 0 1 1 8 0 4 4 0 0 1-8 0z"/></g><g><path fill="#345078" d="M72 52a4 4 0 1 1 8 0 4 4 0 0 1-8 0z"/></g><g><path fill="#59789e" d="M72 60a4 4 0 1 1 8 0 4 4 0 0 1-8 0z"/></g><g><path fill="#59789e" d="M80 4a4 4 0 1 1 8 0 4 4 0 0 1-8 0z"/></g><g><path fill="#345078" d="M80 12a4 4 0 1 1 8 0 4 4 0 0 1-8 0z"/></g><g><path fill="#59789e" d="M80 20a4 4 0 1 1 8 0 4 4 0 0 1-8 0z"/></g><g><path fill="#345078" d="M80 28a4 4 0 1 1 8 0 4 4 0 0 1-8 0z"/></g><g><path fill="#ef4041" d="M88 4a4 4 0 1 1 8 0 4 4 0 0 1-8 0z"/></g><g><path fill="#59789e" d="M88 12a4 4 0 1 1 8 0 4 4 0 0 1-8 0z"/></g><g><path fill="#345078" d="M88 20a4 4 0 1 1 8 0 4 4 0 0 1-8 0z"/></g><g><path fill="#59789e" d="M88 28a4 4 0 1 1 8 0 4 4 0 0 1-8 0z"/></g><g><path fill="#59789e" d="M80 36a4 4 0 1 1 8 0 4 4 0 0 1-8 0z"/></g><g><path fill="#345078" d="M80 44a4 4 0 1 1 8 0 4 4 0 0 1-8 0z"/></g><g><path fill="#59789e" d="M80 52a4 4 0 1 1 8 0 4 4 0 0 1-8 0z"/></g><g><path fill="#345078" d="M80 60a4 4 0 1 1 8 0 4 4 0 0 1-8 0z"/></g><g><path fill="#345078" d="M88 36a4 4 0 1 1 8 0 4 4 0 0 1-8 0z"/></g><g><path fill="#59789e" d="M88 44a4 4 0 1 1 8 0 4 4 0 0 1-8 0z"/></g><g><path fill="#345078" d="M88 52a4 4 0 1 1 8 0 4 4 0 0 1-8 0z"/></g><g><path fill="#ef4041" d="M88 60a4 4 0 1 1 8 0 4 4 0 0 1-8 0z"/></g><g><path fill="#ef4041" d="M0 48c0-8.837 7.163-16 16-16s16 7.163 16 16-7.163 16-16 16S0 56.837 0 48z"/></g></g></g></g></svg>