<svg xmlns="http://www.w3.org/2000/svg" width="43" height="44" viewBox="0 0 43 44"><defs><clipPath id="t6v1a"><path fill="#fff" d="M17.639 13.344a4.5 4.5 0 1 1 9 0 4.5 4.5 0 0 1-9 0z"/></clipPath><clipPath id="t6v1b"><path fill="#fff" d="M26.639 13.344a4.5 4.5 0 1 1 9 0 4.5 4.5 0 0 1-9 0z"/></clipPath><clipPath id="t6v1c"><path fill="#fff" d="M8.519 13.344a4.5 4.5 0 1 1 9 0 4.5 4.5 0 0 1-9 0z"/></clipPath><clipPath id="t6v1d"><path fill="#fff" d="M17.639 22.344a4.5 4.5 0 1 1 9 0 4.5 4.5 0 0 1-9 0z"/></clipPath><clipPath id="t6v1e"><path fill="#fff" d="M26.639 22.344a4.5 4.5 0 1 1 9 0 4.5 4.5 0 0 1-9 0z"/></clipPath><clipPath id="t6v1f"><path fill="#fff" d="M8.519 22.344a4.5 4.5 0 1 1 9 0 4.5 4.5 0 0 1-9 0z"/></clipPath></defs><g><g><g><g><path fill="none" stroke="#fff" stroke-miterlimit="20" stroke-width="1.2" d="M30.4.695H13c-6.6 0-12 5.4-12 12v10.8c0 6.6 5.4 12 12 12h3.266v0l5.433 6.81v0l5.434-6.81v0h3.266c6.6 0 12-5.4 12-12v-10.8c0-6.6-5.4-12-12-12z"/></g><g><path fill="none" stroke="#ef4041" stroke-miterlimit="20" stroke-width="2.4" d="M17.639 13.344a4.5 4.5 0 1 1 9 0 4.5 4.5 0 0 1-9 0z" clip-path="url(&quot;#t6v1a&quot;)"/></g><g><path fill="none" stroke="#59789e" stroke-miterlimit="20" stroke-width="2.4" d="M26.639 13.344a4.5 4.5 0 1 1 9 0 4.5 4.5 0 0 1-9 0z" clip-path="url(&quot;#t6v1b&quot;)"/></g><g><path fill="none" stroke="#59789e" stroke-miterlimit="20" stroke-width="2.4" d="M8.519 13.344a4.5 4.5 0 1 1 9 0 4.5 4.5 0 0 1-9 0z" clip-path="url(&quot;#t6v1c&quot;)"/></g><g><path fill="none" stroke="#59789e" stroke-miterlimit="20" stroke-width="2.4" d="M17.639 22.344a4.5 4.5 0 1 1 9 0 4.5 4.5 0 0 1-9 0z" clip-path="url(&quot;#t6v1d&quot;)"/></g><g><path fill="none" stroke="#ef4041" stroke-miterlimit="20" stroke-width="2.4" d="M26.639 22.344a4.5 4.5 0 1 1 9 0 4.5 4.5 0 0 1-9 0z" clip-path="url(&quot;#t6v1e&quot;)"/></g><g><path fill="none" stroke="#ef4041" stroke-miterlimit="20" stroke-width="2.4" d="M8.519 22.344a4.5 4.5 0 1 1 9 0 4.5 4.5 0 0 1-9 0z" clip-path="url(&quot;#t6v1f&quot;)"/></g></g></g></g></svg>