<svg width="59" height="58" viewBox="0 0 59 58" fill="none" xmlns="http://www.w3.org/2000/svg">
<g clip-path="url(#clip0_327_1256)">
<path d="M0 27.5139H31.4908V45.7984C31.4908 51.5974 26.7897 56.2984 20.9908 56.2984H10C4.47716 56.2984 0 51.8213 0 46.2984V27.5139Z" fill="white"/>
<rect x="8.82446" y="14" width="13.8409" height="23.1897" rx="6.92043" stroke="white" stroke-width="4"/>
<path d="M12.3992 37.1178C12.3992 36.6378 12.4961 36.1625 12.6845 35.719C12.8729 35.2756 13.1491 34.8726 13.4972 34.5332C13.8453 34.1938 14.2586 33.9246 14.7134 33.7409C15.1683 33.5572 15.6558 33.4626 16.1481 33.4626C16.6404 33.4626 17.1279 33.5572 17.5827 33.7409C18.0375 33.9246 18.4508 34.1938 18.7989 34.5332C19.1471 34.8726 19.4232 35.2756 19.6116 35.719C19.8 36.1625 19.897 36.6378 19.897 37.1178C19.897 38.0872 19.502 39.0169 18.7989 39.7024C18.0959 40.3879 17.1423 40.773 16.1481 40.773C15.1538 40.773 14.2003 40.3879 13.4972 39.7024C12.7941 39.0169 12.3992 38.0872 12.3992 37.1178V37.1178Z" fill="#EF4041"/>
<path d="M11.0217 48.0834L14.0208 37.8489H18.5195L21.5186 48.0834H11.0217Z" fill="#EF4041"/>
<path d="M38.5 22.4166L56.125 12.6249L38.5 2.83325L20.875 12.6249L38.5 22.4166Z" stroke="white"/>
<path d="M38.5 22.4167L50.5633 15.7153C52.1506 19.7458 52.6011 24.1345 51.8656 28.4034C46.8984 28.8855 42.2154 30.9426 38.5 34.2745C34.7852 30.943 30.1028 28.8859 25.1363 28.4034C24.4004 24.1346 24.8509 19.7456 26.4386 15.7153L38.5 22.4167Z" stroke="white"/>
<path d="M38.5 22.4166L56.125 12.6249L38.5 2.83325L20.875 12.6249L38.5 22.4166ZM38.5 22.4166L50.5633 15.7152C52.1506 19.7456 52.6011 24.1344 51.8656 28.4032C46.8984 28.8853 42.2154 30.9424 38.5 34.2743C34.7851 30.9428 30.1028 28.8857 25.1363 28.4032C24.4004 24.1344 24.8509 19.7455 26.4386 15.7152L38.5 22.4166ZM30.6667 34.1666V19.4791L38.5 15.1277" stroke="#345078" stroke-width="4" stroke-linecap="round" stroke-linejoin="round"/>
</g>
<defs>
<clipPath id="clip0_327_1256">
<rect width="59" height="58" fill="white"/>
</clipPath>
</defs>
</svg>
