<svg width="496" height="230" viewBox="0 0 496 230" fill="none" xmlns="http://www.w3.org/2000/svg">
<path d="M200.461 119.129C200.449 112.737 201.729 106.409 204.226 100.521C207.867 91.972 213.916 84.657 221.641 79.4606C229.56 74.1215 238.909 71.2795 248.471 71.3042C255.157 71.3042 261.421 72.6428 267.152 75.055C275.733 78.6825 283.076 84.7084 288.293 92.4043C293.651 100.293 296.503 109.605 296.48 119.129H337.941C337.952 107.423 335.642 95.8305 331.146 85.0155C326.65 74.2004 320.055 64.3757 311.74 56.1047C303.437 47.8194 293.573 41.2484 282.715 36.7688C271.857 32.2892 260.218 29.9889 248.465 30C236.715 29.99 225.078 32.2908 214.221 36.7704C203.365 41.25 193.503 47.8204 185.201 56.1047C176.886 64.3757 170.291 74.2004 165.795 85.0155C161.299 95.8305 158.99 107.423 159 119.129H200.461Z" fill="white"/>
<path d="M282.418 85.3109C286.801 89.6729 290.298 94.8376 292.715 100.521C295.211 106.409 296.491 112.738 296.478 119.129H337.939C337.949 107.423 335.64 95.8305 331.144 85.0153C326.648 74.2002 320.053 64.3756 311.737 56.1049L282.418 85.3109Z" fill="#EF4041"/>
<path d="M218.401 126.43L275.393 93.083L241.92 149.86" fill="white"/>
<path d="M229.206 182.525C229.206 180.23 229.66 177.957 230.542 175.837C231.423 173.717 232.715 171.79 234.344 170.167C235.973 168.544 237.907 167.257 240.036 166.379C242.164 165.5 244.445 165.048 246.749 165.048C249.053 165.048 251.334 165.5 253.463 166.379C255.591 167.257 257.525 168.544 259.154 170.167C260.783 171.79 262.075 173.717 262.957 175.837C263.838 177.957 264.292 180.23 264.292 182.525C264.292 187.16 262.444 191.604 259.154 194.882C255.865 198.159 251.403 200 246.75 200C242.098 200 237.636 198.159 234.347 194.882C231.057 191.604 229.209 187.16 229.209 182.525H229.206Z" fill="#59789E"/>
<path d="M192.205 182.525C192.205 180.23 192.658 177.957 193.54 175.837C194.422 173.717 195.714 171.791 197.343 170.168C198.971 168.545 200.905 167.258 203.033 166.38C205.162 165.502 207.443 165.05 209.746 165.05C212.05 165.05 214.331 165.502 216.459 166.38C218.587 167.258 220.521 168.545 222.15 170.168C223.779 171.791 225.071 173.717 225.953 175.837C226.834 177.957 227.288 180.23 227.288 182.525C227.288 187.159 225.44 191.604 222.15 194.881C218.86 198.159 214.399 200 209.746 200C205.094 200 200.632 198.159 197.343 194.881C194.053 191.604 192.205 187.159 192.205 182.525V182.525Z" fill="#59789E"/>
<path d="M266.567 182.525C266.567 180.23 267.021 177.957 267.902 175.837C268.784 173.717 270.076 171.791 271.705 170.168C273.334 168.545 275.268 167.258 277.396 166.38C279.524 165.502 281.805 165.05 284.109 165.05C286.412 165.05 288.693 165.502 290.822 166.38C292.95 167.258 294.884 168.545 296.513 170.168C298.141 171.791 299.434 173.717 300.315 175.837C301.197 177.957 301.65 180.23 301.65 182.525C301.65 187.159 299.802 191.604 296.513 194.881C293.223 198.159 288.761 200 284.109 200C279.456 200 274.995 198.159 271.705 194.881C268.415 191.604 266.567 187.159 266.567 182.525V182.525Z" fill="#EF4041"/>
</svg>
