<svg xmlns="http://www.w3.org/2000/svg" width="174" height="174" viewBox="0 0 174 174"><g><g><g><g><path fill="#fff" d="M50.75 145c-27.614 0-50-22.386-50-50V50c0-27.614 22.386-50 50-50h72.5c27.614 0 50 22.386 50 50v45c0 27.614-22.386 50-50 50z"/></g><g><path fill="#fff" d="M116.623 136.25L87 173.373 57.377 136.25 87 99.127z"/></g><g><path fill="#ef4041" d="M70.082 52.702c0-10.356 8.395-18.75 18.75-18.75s18.75 8.394 18.75 18.75c0 10.355-8.395 18.75-18.75 18.75s-18.75-8.395-18.75-18.75z"/></g><g><path fill="#345078" d="M107.582 52.702c0-10.356 8.395-18.75 18.75-18.75s18.75 8.394 18.75 18.75c0 10.355-8.395 18.75-18.75 18.75s-18.75-8.395-18.75-18.75z"/></g><g><path fill="#345078" d="M32.08 52.702c0-10.356 8.395-18.75 18.75-18.75 10.356 0 18.75 8.394 18.75 18.75 0 10.355-8.394 18.75-18.75 18.75-10.355 0-18.75-8.395-18.75-18.75z"/></g><g><path fill="#345078" d="M70.082 90.202c0-10.356 8.395-18.75 18.75-18.75s18.75 8.394 18.75 18.75c0 10.355-8.395 18.75-18.75 18.75s-18.75-8.395-18.75-18.75z"/></g><g><path fill="#ef4041" d="M107.582 90.202c0-10.356 8.395-18.75 18.75-18.75s18.75 8.394 18.75 18.75c0 10.355-8.395 18.75-18.75 18.75s-18.75-8.395-18.75-18.75z"/></g><g><path fill="#ef4041" d="M32.08 90.202c0-10.356 8.395-18.75 18.75-18.75 10.356 0 18.75 8.394 18.75 18.75 0 10.355-8.394 18.75-18.75 18.75-10.355 0-18.75-8.395-18.75-18.75z"/></g></g></g></g></svg>