<?xml version="1.0" standalone="no"?>
<!DOCTYPE svg PUBLIC "-//W3C//DTD SVG 20010904//EN"
 "http://www.w3.org/TR/2001/REC-SVG-20010904/DTD/svg10.dtd">
<svg version="1.0" xmlns="http://www.w3.org/2000/svg"
 width="192.000000pt" height="192.000000pt" viewBox="0 0 192.000000 192.000000"
 preserveAspectRatio="xMidYMid meet">
<metadata>
Created by potrace 1.14, written by Peter Selinger 2001-2017
</metadata>
<g transform="translate(0.000000,192.000000) scale(0.100000,-0.100000)"
fill="#000000" stroke="none">
<path d="M1706 1889 c-11 -10 -14 -19 -8 -19 19 0 20 0 64 -16 23 -8 53 -25
67 -37 52 -48 51 -28 51 -859 0 -758 0 -772 -21 -814 -22 -46 -67 -79 -124
-90 -19 -3 -32 -10 -29 -15 3 -5 -1 -9 -8 -10 -23 -1 26 -18 55 -18 40 -1 100
32 136 76 l31 38 0 835 0 835 -30 37 c-33 40 -103 78 -141 77 -13 0 -33 -9
-43 -20z"/>
<path d="M360 1637 c-19 -7 -44 -27 -57 -46 -22 -33 -23 -41 -23 -257 l0 -224
30 0 29 0 3 153 3 152 68 3 c64 3 67 4 67 27 0 24 -2 25 -71 25 l-72 0 6 42
c8 58 36 80 96 76 43 -2 46 -1 49 23 3 22 -2 27 -29 33 -42 8 -58 7 -99 -7z"/>
<path d="M967 1584 c-31 -14 -36 -20 -31 -38 9 -30 11 -31 39 -18 42 19 112
15 135 -8 51 -51 -1 -130 -86 -130 -19 0 -24 -5 -24 -24 0 -21 6 -24 51 -30
81 -11 118 -64 88 -130 -7 -13 -24 -30 -40 -36 -29 -12 -121 -10 -151 4 -13 6
-19 2 -24 -19 -8 -34 4 -42 73 -51 108 -13 181 19 209 92 22 58 8 112 -40 151
l-34 27 23 18 c55 43 51 138 -7 181 -37 28 -129 33 -181 11z"/>
<path d="M654 1550 c-27 -23 -59 -43 -71 -46 -23 -6 -29 -28 -15 -52 6 -9 20
-6 58 13 27 14 50 25 52 25 1 0 2 -85 2 -190 l0 -190 30 0 30 0 0 240 c0 276
2 273 -86 200z"/>
</g>
</svg>
